<svg width="10" height="10" viewBox="0 0 10 10" fill="none" xmlns="http://www.w3.org/2000/svg">
<path d="M9.75 7.54299C9.7937 7.58654 9.82837 7.63829 9.85203 7.69526C9.87569 7.75224 9.88787 7.81333 9.88787 7.87502C9.88787 7.93672 9.87569 7.9978 9.85203 8.05478C9.82837 8.11176 9.7937 8.16351 9.75 8.20705L8.20312 9.75002C8.15957 9.79372 8.10783 9.8284 8.05085 9.85206C7.99387 9.87571 7.93278 9.88789 7.87109 9.88789C7.8094 9.88789 7.74831 9.87571 7.69133 9.85206C7.63435 9.8284 7.58261 9.79372 7.53906 9.75002L5 7.18752L2.45703 9.75002C2.41348 9.79372 2.36173 9.8284 2.30476 9.85206C2.24778 9.87571 2.18669 9.88789 2.125 9.88789C2.0633 9.88789 2.00222 9.87571 1.94524 9.85206C1.88826 9.8284 1.83652 9.79372 1.79297 9.75002L0.249998 8.20315C0.206298 8.1596 0.171625 8.10785 0.147966 8.05088C0.124308 7.9939 0.112129 7.93281 0.112129 7.87112C0.112129 7.80942 0.124308 7.74833 0.147966 7.69136C0.171625 7.63438 0.206298 7.58263 0.249998 7.53908L2.8125 5.00002L0.249998 2.45705C0.206298 2.4135 0.171625 2.36176 0.147966 2.30478C0.124308 2.2478 0.112129 2.18672 0.112129 2.12502C0.112129 2.06333 0.124308 2.00224 0.147966 1.94526C0.171625 1.88829 0.206298 1.83654 0.249998 1.79299L1.79687 0.246116C1.84042 0.202416 1.89217 0.167742 1.94915 0.144083C2.00612 0.120424 2.06721 0.108246 2.1289 0.108246C2.1906 0.108246 2.25169 0.120424 2.30866 0.144083C2.36564 0.167742 2.41739 0.202416 2.46094 0.246116L5 2.81252L7.54297 0.250021C7.58651 0.206321 7.63826 0.171648 7.69524 0.14799C7.75221 0.124331 7.8133 0.112152 7.875 0.112152C7.93669 0.112152 7.99778 0.124331 8.05475 0.14799C8.11173 0.171648 8.16348 0.206321 8.20703 0.250021L9.7539 1.7969C9.7976 1.84045 9.83228 1.89219 9.85593 1.94917C9.87959 2.00615 9.89177 2.06723 9.89177 2.12893C9.89177 2.19062 9.87959 2.25171 9.85593 2.30869C9.83228 2.36566 9.7976 2.41741 9.7539 2.46096L7.1875 5.00002L9.75 7.54299Z" fill="white"/>
</svg>
