<svg width="24" height="24" viewBox="0 0 24 24" fill="none" xmlns="http://www.w3.org/2000/svg">
<path d="M12 7.875C9.72188 7.875 7.875 9.72188 7.875 12C7.875 14.2781 9.72188 16.125 12 16.125C14.2781 16.125 16.125 14.2781 16.125 12C16.125 9.72188 14.2781 7.875 12 7.875ZM12 13.875C10.9659 13.875 10.125 13.0341 10.125 12C10.125 10.9659 10.9659 10.125 12 10.125C13.0341 10.125 13.875 10.9659 13.875 12C13.875 13.0341 13.0341 13.875 12 13.875ZM23.25 10.875H20.9222C20.4136 6.80578 17.1942 3.58641 13.125 3.07781V0.75C13.125 0.335625 12.7894 0 12.375 0H11.625C11.2106 0 10.875 0.335625 10.875 0.75V3.07781C6.80578 3.58641 3.58641 6.80578 3.07781 10.875H0.75C0.335625 10.875 0 11.2106 0 11.625V12.375C0 12.7894 0.335625 13.125 0.75 13.125H3.07781C3.58641 17.1942 6.80578 20.4136 10.875 20.9222V23.25C10.875 23.6644 11.2106 24 11.625 24H12.375C12.7894 24 13.125 23.6644 13.125 23.25V20.9222C17.1942 20.4136 20.4136 17.1938 20.9222 13.125H23.25C23.6644 13.125 24 12.7894 24 12.375V11.625C24 11.2106 23.6644 10.875 23.25 10.875ZM12 18.75C8.27812 18.75 5.25 15.7219 5.25 12C5.25 8.27812 8.27812 5.25 12 5.25C15.7219 5.25 18.75 8.27812 18.75 12C18.75 15.7219 15.7219 18.75 12 18.75Z" fill="black"/>
</svg>
